<svg width="114" height="29" viewBox="0 0 114 29" fill="none" xmlns="http://www.w3.org/2000/svg">
<rect y="13.0996" width="32" height="1.54334" rx="0.771672" fill="#E3B873"/>
<rect x="82" y="13.0996" width="32" height="1.54334" rx="0.771672" fill="#E3B873"/>
<path d="M62.4255 8.65979L57.58 7.20604C57.2163 7.09752 56.8424 7.05931 56.472 7.07284V7.06037H50.5827L40.139 3.58984L40.1706 18.2648L43.1686 19.7634L44.9436 15.4239L47.5367 16.4613L48.2091 14.781L49.1828 15.7547L48.2743 16.6635C47.9586 16.9792 47.7776 17.416 47.7776 17.8628C47.7776 18.7771 48.5068 19.5206 49.4137 19.5527C49.4453 20.4389 50.1577 21.1513 51.0439 21.1829C51.0754 22.0691 51.7879 22.7815 52.6741 22.8131C52.7067 23.72 53.4496 24.4491 54.3642 24.4491C54.8108 24.4491 55.2478 24.2681 55.5633 23.9524L56.472 23.0439L56.8371 23.409C57.1529 23.7247 57.5896 23.9057 58.0364 23.9057C58.951 23.9057 59.6942 23.1766 59.7263 22.2697C60.6125 22.2381 61.3249 21.5257 61.3565 20.6395C62.2427 20.6079 62.9551 19.8955 62.9867 19.0093C63.8936 18.9766 64.623 18.2337 64.623 17.3194C64.623 17.2422 64.6105 17.166 64.6002 17.0894L65.38 16.3095L66.0101 17.5704L69.4233 15.8635L71.486 19.8016L73.8607 18.2191V4.17437L62.4255 8.65979ZM42.6056 18.2669L41.2563 17.5922L41.229 5.09719L47.1836 7.07629L42.6056 18.2669ZM46.9315 15.0484L45.3546 14.418L48.2173 7.41963L49.7751 7.93756L46.9315 15.0484ZM48.8644 17.8628C48.8644 17.7023 48.9289 17.5455 49.0425 17.4316L49.9979 16.4764C50.1115 16.3629 50.2686 16.2981 50.4288 16.2981C50.7647 16.2981 51.038 16.5717 51.038 16.9073C51.038 17.0676 50.9733 17.2247 50.8597 17.3382L49.9045 18.2937C49.791 18.4072 49.6339 18.4717 49.4736 18.4717C49.1377 18.4717 48.8644 18.1984 48.8644 17.8628ZM50.4946 19.493C50.4946 19.3325 50.5591 19.1756 50.6727 19.0618L51.6281 18.1066C51.7417 17.9931 51.8988 17.9283 52.059 17.9283C52.3949 17.9283 52.6682 18.2019 52.6682 18.5375C52.6682 18.6978 52.6035 18.8549 52.4899 18.9684L51.5347 19.9239C51.4212 20.0374 51.2641 20.1019 51.1038 20.1019C50.7679 20.1019 50.4946 19.8286 50.4946 19.493ZM52.1248 21.1232C52.1248 20.9627 52.1893 20.8058 52.3029 20.692L53.2583 19.7368C53.3719 19.6233 53.529 19.5585 53.6892 19.5585C54.0251 19.5585 54.2984 19.8321 54.2984 20.1677C54.2984 20.328 54.2337 20.4851 54.1201 20.5986L53.1649 21.5541C53.0514 21.6676 52.8943 21.7321 52.734 21.7321C52.3981 21.7321 52.1248 21.4588 52.1248 21.1232ZM55.7503 22.2288L54.7951 23.1843C54.6816 23.2978 54.5245 23.3623 54.3642 23.3623C54.0283 23.3623 53.755 23.089 53.755 22.7534C53.755 22.5928 53.8195 22.436 53.9331 22.3222L54.8885 21.367C55.0021 21.2535 55.1592 21.1887 55.3194 21.1887C55.6553 21.1887 55.9286 21.4623 55.9286 21.7979C55.9286 21.9582 55.8639 22.1152 55.7503 22.2288ZM62.927 17.9283C62.7667 17.9283 62.6096 17.8639 62.4961 17.7503L57.943 13.1969L57.1746 13.9653L61.7277 18.5184C61.8412 18.6322 61.906 18.7891 61.906 18.9496C61.906 19.2852 61.6327 19.5585 61.2968 19.5585C61.1365 19.5585 60.9795 19.494 60.8659 19.3805L56.3128 14.8271L55.5444 15.5955L60.0975 20.1486C60.2111 20.2624 60.2758 20.4193 60.2758 20.5798C60.2758 20.9154 60.0025 21.1887 59.6666 21.1887C59.5063 21.1887 59.3493 21.1242 59.2357 21.0107L54.6826 16.4573L53.9142 17.2257L58.4673 21.7788C58.5809 21.8926 58.6456 22.0494 58.6456 22.21C58.6456 22.5456 58.3723 22.8189 58.0364 22.8189C57.8761 22.8189 57.7191 22.7544 57.6055 22.6409L56.9926 22.0277C57.0035 21.9518 57.0154 21.8757 57.0154 21.7979C57.0154 20.8833 56.286 20.1401 55.3791 20.108C55.3475 19.2218 54.6351 18.5094 53.7489 18.4778C53.7173 17.5916 53.0049 16.8792 52.1187 16.8476C52.0861 15.9407 51.3434 15.2113 50.4288 15.2113C50.3516 15.2113 50.2755 15.2238 50.1991 15.2342L48.6477 13.6828L50.8624 8.14717H54.0734L52.0781 10.1427C51.7573 10.4627 51.5814 10.8888 51.5814 11.342C51.5814 12.277 52.3421 13.0377 53.2774 13.0377C53.724 13.0377 54.161 12.8568 54.4765 12.541L55.9161 11.1011C56.2107 10.8076 56.7294 10.7962 57.0361 11.0772L58.3065 12.2418C58.7287 12.6286 59.1978 12.9505 59.6998 13.2025L63.3579 16.8882C63.4714 17.0021 63.5362 17.1589 63.5362 17.3194C63.5362 17.655 63.2629 17.9283 62.927 17.9283ZM64.0796 16.0731L61.846 13.8226C62.0456 13.8414 62.2467 13.8528 62.4494 13.8528V12.766C61.1843 12.766 59.9736 12.2951 59.0412 11.4402L57.7705 10.2762C57.0534 9.61763 55.8368 9.6439 55.1483 10.3332L53.7089 11.7729C53.5948 11.8859 53.4377 11.951 53.2774 11.951C52.9415 11.951 52.6682 11.6777 52.6682 11.342C52.6682 11.1788 52.7311 11.0263 52.8463 10.9109L54.9177 8.83968C55.5264 8.23101 56.4404 7.99938 57.2675 8.2472L62.0678 9.68715L64.8668 15.2859L64.0796 16.0731ZM66.4959 16.1124L63.2013 9.52264L65.6076 8.5786L68.9189 14.9006L66.4959 16.1124ZM72.7739 17.6378L71.888 18.2284L66.6254 8.1798L72.7739 5.76821V17.6378Z" fill="#E3B873"/>
<circle cx="59.6661" cy="0.801021" r="0.485591" fill="#E3B873"/>
<circle cx="47.4093" cy="23.7302" r="0.485591" fill="#E3B873"/>
<circle cx="49.4674" cy="25.4187" r="0.485591" fill="#E3B873"/>
<circle cx="51.816" cy="26.6575" r="0.485591" fill="#E3B873"/>
<circle cx="54.3649" cy="27.4499" r="0.485591" fill="#E3B873"/>
<circle cx="62.2135" cy="1.57397" r="0.485591" fill="#E3B873"/>
<circle cx="64.5626" cy="2.82836" r="0.485591" fill="#E3B873"/>
<path d="M66.8299 2.12646V4.92816H63.9965" stroke="#E3B873" stroke-linecap="round" stroke-linejoin="round"/>
<path d="M45.0098 23.4136L45.0098 21.1468L47.2738 21.1468" stroke="#E3B873" stroke-linecap="round" stroke-linejoin="round"/>
<path d="M47.8002 4.10948C49.3353 2.77366 50.3118 2.1591 52.1513 1.44085C54.1027 0.678913 55.423 0.499988 57.5435 0.5" stroke="#E3B873" stroke-linecap="round"/>
<path d="M68.404 21.598C67.2627 23.3782 65.137 25.1163 63.4083 26.0708C61.5744 27.0833 59.6096 27.6539 56.9925 27.7902" stroke="#E3B873" stroke-linecap="round"/>
</svg>
